<svg width="28" height="25" viewBox="0 0 28 25" fill="#ffffff" xmlns="http://www.w3.org/2000/svg">
<path d="M0 1.17188C0 0.522461 0.524587 0 1.17664 0H3.40737C4.48596 0 5.44198 0.625 5.88813 1.5625H26.0382C27.3276 1.5625 28.2689 2.7832 27.9306 4.02344L25.9205 11.46C25.5038 12.9932 24.1065 14.0625 22.5131 14.0625H8.36889L8.63363 15.4541C8.74149 16.0059 9.22686 16.4062 9.79066 16.4062H23.9251C24.5772 16.4062 25.1018 16.9287 25.1018 17.5781C25.1018 18.2275 24.5772 18.75 23.9251 18.75H9.79066C8.09433 18.75 6.63824 17.5488 6.32447 15.8936L3.79468 2.66113C3.76036 2.47559 3.59857 2.34375 3.40737 2.34375H1.17664C0.524587 2.34375 0 1.82129 0 1.17188ZM6.27544 22.6562C6.27544 22.3485 6.33631 22.0437 6.45457 21.7593C6.57284 21.475 6.74618 21.2166 6.9647 20.999C7.18322 20.7813 7.44265 20.6087 7.72816 20.4909C8.01368 20.3731 8.31969 20.3125 8.62873 20.3125C8.93777 20.3125 9.24378 20.3731 9.52929 20.4909C9.81481 20.6087 10.0742 20.7813 10.2928 20.999C10.5113 21.2166 10.6846 21.475 10.8029 21.7593C10.9211 22.0437 10.982 22.3485 10.982 22.6562C10.982 22.964 10.9211 23.2688 10.8029 23.5532C10.6846 23.8375 10.5113 24.0959 10.2928 24.3135C10.0742 24.5312 9.81481 24.7038 9.52929 24.8216C9.24378 24.9394 8.93777 25 8.62873 25C8.31969 25 8.01368 24.9394 7.72816 24.8216C7.44265 24.7038 7.18322 24.5312 6.9647 24.3135C6.74618 24.0959 6.57284 23.8375 6.45457 23.5532C6.33631 23.2688 6.27544 22.964 6.27544 22.6562ZM22.7485 20.3125C23.3726 20.3125 23.9712 20.5594 24.4125 20.999C24.8538 21.4385 25.1018 22.0346 25.1018 22.6562C25.1018 23.2779 24.8538 23.874 24.4125 24.3135C23.9712 24.7531 23.3726 25 22.7485 25C22.1243 25 21.5258 24.7531 21.0844 24.3135C20.6431 23.874 20.3952 23.2779 20.3952 22.6562C20.3952 22.0346 20.6431 21.4385 21.0844 20.999C21.5258 20.5594 22.1243 20.3125 22.7485 20.3125Z" fill="inherit"/>
</svg>
