<svg width="275" height="51" viewBox="0 0 275 51" fill="none" xmlns="http://www.w3.org/2000/svg">
<g clip-path="url(#clip0_235_3)">
<path d="M0 25.5383L25.8208 51L51.7192 25.4617L25.8984 0L0 25.5383ZM25.8418 37.2093L13.9852 25.5175L37.734 25.4825L25.8418 37.2093Z" fill="url(#paint0_linear_235_3)"/>
<path d="M77.4229 11.5111C83.6882 11.5111 87.7587 15.2495 87.7587 20.8768C87.7587 26.4254 83.6882 29.8884 77.4229 29.8884H73.4721V39.0574H67.6457V11.5111H77.4229ZM77.0637 24.9301C79.937 24.9301 81.9323 23.8282 81.9323 20.8768C81.9323 17.9648 79.937 16.7842 77.0637 16.7842H73.4721V24.9301H77.0637ZM108.63 11.5111H114.456V39.0574H108.63V27.9208H97.3763V39.0574H91.5499V11.5111H97.3763V22.6476H108.63V11.5111ZM133.133 11.1176C140.915 11.1176 147.619 16.9023 147.619 25.2842C147.619 33.6662 140.915 39.4509 133.133 39.4509C125.351 39.4509 118.647 33.6662 118.647 25.2842C118.647 16.9023 125.351 11.1176 133.133 11.1176ZM133.133 34.0597C137.842 34.0597 141.553 30.4 141.553 25.2842C141.553 20.1685 137.842 16.5088 133.133 16.5088C128.424 16.5088 124.712 20.1685 124.712 25.2842C124.712 30.4 128.424 34.0597 133.133 34.0597ZM170.086 11.5111H175.913V39.0574H171.483L157.636 21.9787V39.0574H151.809V11.5111H156.319L170.086 28.6291V11.5111ZM186.528 33.7842H198.34V39.0574H185.73H180.702V11.5111H186.528H197.981V16.7842H186.528V22.6083H195.188V27.8027H186.528V33.7842Z" fill="white"/>
<path d="M224.8 11.1176H225.99V39.4509H225.087L204.933 13.3437V39.4509H203.742V11.1176H204.645L224.8 37.3056V11.1176ZM232.106 11.1176V39.4509H230.916V11.1176H232.106ZM254.764 11.1176V12.2914H246.103V39.4509H244.913V12.2914H236.211V11.1176H254.764ZM260.059 38.2771H275V39.4509H259.238H258.869V11.1176H260.059H274.631V12.2914H260.059V24.6366H271.675V25.8104H260.059V38.2771Z" fill="white"/>
</g>
<defs>
<linearGradient id="paint0_linear_235_3" x1="0" y1="0" x2="51.7192" y2="0" gradientUnits="userSpaceOnUse">
<stop stop-color="#00FF8F"/>
<stop offset="1" stop-color="#00A1FF"/>
</linearGradient>
<clipPath id="clip0_235_3">
<rect width="275" height="51" fill="white"/>
</clipPath>
</defs>
</svg>
