<svg xmlns:xlink="http://www.w3.org/1999/xlink" xmlns="http://www.w3.org/2000/svg" viewBox="0 0 341.4850362295626 64.22301496483587" preserveAspectRatio="xMidYMid meet" class="css-1uxicuq" id="bfcdbfgh" width="341.4850362295626"  height="64.22301496483587" ><defs id="SvgjsDefs1001"><linearGradient id="SvgjsLinearGradient1013"><stop id="SvgjsStop1014" stop-color="#00ff8f" offset="0"></stop><stop id="SvgjsStop1015" stop-color="#00a1ff" offset="1"></stop></linearGradient><linearGradient id="SvgjsLinearGradient1013"><stop id="SvgjsStop1014" stop-color="#00ff8f" offset="0"></stop><stop id="SvgjsStop1015" stop-color="#00a1ff" offset="1"></stop></linearGradient><linearGradient id="SvgjsLinearGradient1013"><stop id="SvgjsStop1014" stop-color="#00ff8f" offset="0"></stop><stop id="SvgjsStop1015" stop-color="#00a1ff" offset="1"></stop></linearGradient><linearGradient id="SvgjsLinearGradient1013"><stop id="SvgjsStop1014" stop-color="#00ff8f" offset="0"></stop><stop id="SvgjsStop1015" stop-color="#00a1ff" offset="1"></stop></linearGradient><linearGradient id="SvgjsLinearGradient1013"><stop id="SvgjsStop1014" stop-color="#00ff8f" offset="0"></stop><stop id="SvgjsStop1015" stop-color="#00a1ff" offset="1"></stop></linearGradient><linearGradient id="SvgjsLinearGradient1013"><stop id="SvgjsStop1014" stop-color="#00ff8f" offset="0"></stop><stop id="SvgjsStop1015" stop-color="#00a1ff" offset="1"></stop></linearGradient><linearGradient id="SvgjsLinearGradient1013"><stop id="SvgjsStop1014" stop-color="#00ff8f" offset="0"></stop><stop id="SvgjsStop1015" stop-color="#00a1ff" offset="1"></stop></linearGradient><linearGradient id="SvgjsLinearGradient1013"><stop id="SvgjsStop1014" stop-color="#00ff8f" offset="0"></stop><stop id="SvgjsStop1015" stop-color="#00a1ff" offset="1"></stop></linearGradient><linearGradient id="SvgjsLinearGradient1013"><stop id="SvgjsStop1014" stop-color="#00ff8f" offset="0"></stop><stop id="SvgjsStop1015" stop-color="#00a1ff" offset="1"></stop></linearGradient><linearGradient id="SvgjsLinearGradient1013"><stop id="SvgjsStop1014" stop-color="#00ff8f" offset="0"></stop><stop id="SvgjsStop1015" stop-color="#00a1ff" offset="1"></stop></linearGradient><linearGradient id="SvgjsLinearGradient1013"><stop id="SvgjsStop1014" stop-color="#00ff8f" offset="0"></stop><stop id="SvgjsStop1015" stop-color="#00a1ff" offset="1"></stop></linearGradient><linearGradient id="SvgjsLinearGradient1013"><stop id="SvgjsStop1014" stop-color="#00ff8f" offset="0"></stop><stop id="SvgjsStop1015" stop-color="#00a1ff" offset="1"></stop></linearGradient><linearGradient id="SvgjsLinearGradient1013"><stop id="SvgjsStop1014" stop-color="#00ff8f" offset="0"></stop><stop id="SvgjsStop1015" stop-color="#00a1ff" offset="1"></stop></linearGradient><linearGradient id="SvgjsLinearGradient1013"><stop id="SvgjsStop1014" stop-color="#00ff8f" offset="0"></stop><stop id="SvgjsStop1015" stop-color="#00a1ff" offset="1"></stop></linearGradient><linearGradient id="SvgjsLinearGradient1013"><stop id="SvgjsStop1014" stop-color="#00ff8f" offset="0"></stop><stop id="SvgjsStop1015" stop-color="#00a1ff" offset="1"></stop></linearGradient><linearGradient id="SvgjsLinearGradient1013"><stop id="SvgjsStop1014" stop-color="#00ff8f" offset="0"></stop><stop id="SvgjsStop1015" stop-color="#00a1ff" offset="1"></stop></linearGradient><linearGradient id="SvgjsLinearGradient1013"><stop id="SvgjsStop1014" stop-color="#00ff8f" offset="0"></stop><stop id="SvgjsStop1015" stop-color="#00a1ff" offset="1"></stop></linearGradient><linearGradient id="SvgjsLinearGradient1013"><stop id="SvgjsStop1014" stop-color="#00ff8f" offset="0"></stop><stop id="SvgjsStop1015" stop-color="#00a1ff" offset="1"></stop></linearGradient><linearGradient id="SvgjsLinearGradient1013"><stop id="SvgjsStop1014" stop-color="#00ff8f" offset="0"></stop><stop id="SvgjsStop1015" stop-color="#00a1ff" offset="1"></stop></linearGradient><linearGradient id="SvgjsLinearGradient1013"><stop id="SvgjsStop1014" stop-color="#00ff8f" offset="0"></stop><stop id="SvgjsStop1015" stop-color="#00a1ff" offset="1"></stop></linearGradient><linearGradient id="SvgjsLinearGradient1013"><stop id="SvgjsStop1014" stop-color="#00ff8f" offset="0"></stop><stop id="SvgjsStop1015" stop-color="#00a1ff" offset="1"></stop></linearGradient><linearGradient id="SvgjsLinearGradient1013"><stop id="SvgjsStop1014" stop-color="#00ff8f" offset="0"></stop><stop id="SvgjsStop1015" stop-color="#00a1ff" offset="1"></stop></linearGradient><linearGradient id="SvgjsLinearGradient1013"><stop id="SvgjsStop1014" stop-color="#00ff8f" offset="0"></stop><stop id="SvgjsStop1015" stop-color="#00a1ff" offset="1"></stop></linearGradient><linearGradient id="SvgjsLinearGradient1013"><stop id="SvgjsStop1014" stop-color="#00ff8f" offset="0"></stop><stop id="SvgjsStop1015" stop-color="#00a1ff" offset="1"></stop></linearGradient><linearGradient id="SvgjsLinearGradient1013"><stop id="SvgjsStop1014" stop-color="#00ff8f" offset="0"></stop><stop id="SvgjsStop1015" stop-color="#00a1ff" offset="1"></stop></linearGradient><linearGradient id="SvgjsLinearGradient1013"><stop id="SvgjsStop1014" stop-color="#00ff8f" offset="0"></stop><stop id="SvgjsStop1015" stop-color="#00a1ff" offset="1"></stop></linearGradient><linearGradient id="SvgjsLinearGradient1013"><stop id="SvgjsStop1014" stop-color="#00ff8f" offset="0"></stop><stop id="SvgjsStop1015" stop-color="#00a1ff" offset="1"></stop></linearGradient><linearGradient id="SvgjsLinearGradient1013"><stop id="SvgjsStop1014" stop-color="#00ff8f" offset="0"></stop><stop id="SvgjsStop1015" stop-color="#00a1ff" offset="1"></stop></linearGradient><linearGradient id="SvgjsLinearGradient1013"><stop id="SvgjsStop1014" stop-color="#00ff8f" offset="0"></stop><stop id="SvgjsStop1015" stop-color="#00a1ff" offset="1"></stop></linearGradient><linearGradient id="SvgjsLinearGradient1013"><stop id="SvgjsStop1014" stop-color="#00ff8f" offset="0"></stop><stop id="SvgjsStop1015" stop-color="#00a1ff" offset="1"></stop></linearGradient><linearGradient id="SvgjsLinearGradient1013"><stop id="SvgjsStop1014" stop-color="#00ff8f" offset="0"></stop><stop id="SvgjsStop1015" stop-color="#00a1ff" offset="1"></stop></linearGradient><linearGradient id="SvgjsLinearGradient1013"><stop id="SvgjsStop1014" stop-color="#00ff8f" offset="0"></stop><stop id="SvgjsStop1015" stop-color="#00a1ff" offset="1"></stop></linearGradient><linearGradient id="SvgjsLinearGradient1013"><stop id="SvgjsStop1014" stop-color="#00ff8f" offset="0"></stop><stop id="SvgjsStop1015" stop-color="#00a1ff" offset="1"></stop></linearGradient><linearGradient id="SvgjsLinearGradient1013"><stop id="SvgjsStop1014" stop-color="#00ff8f" offset="0"></stop><stop id="SvgjsStop1015" stop-color="#00a1ff" offset="1"></stop></linearGradient><linearGradient id="SvgjsLinearGradient1013"><stop id="SvgjsStop1014" stop-color="#00ff8f" offset="0"></stop><stop id="SvgjsStop1015" stop-color="#00a1ff" offset="1"></stop></linearGradient><linearGradient id="SvgjsLinearGradient1013"><stop id="SvgjsStop1014" stop-color="#00ff8f" offset="0"></stop><stop id="SvgjsStop1015" stop-color="#00a1ff" offset="1"></stop></linearGradient><linearGradient id="SvgjsLinearGradient1013"><stop id="SvgjsStop1014" stop-color="#00ff8f" offset="0"></stop><stop id="SvgjsStop1015" stop-color="#00a1ff" offset="1"></stop></linearGradient><linearGradient id="SvgjsLinearGradient1013"><stop id="SvgjsStop1014" stop-color="#00ff8f" offset="0"></stop><stop id="SvgjsStop1015" stop-color="#00a1ff" offset="1"></stop></linearGradient><linearGradient id="SvgjsLinearGradient1013"><stop id="SvgjsStop1014" stop-color="#00ff8f" offset="0"></stop><stop id="SvgjsStop1015" stop-color="#00a1ff" offset="1"></stop></linearGradient><linearGradient id="SvgjsLinearGradient1013"><stop id="SvgjsStop1014" stop-color="#00ff8f" offset="0"></stop><stop id="SvgjsStop1015" stop-color="#00a1ff" offset="1"></stop></linearGradient><linearGradient id="SvgjsLinearGradient1013"><stop id="SvgjsStop1014" stop-color="#00ff8f" offset="0"></stop><stop id="SvgjsStop1015" stop-color="#00a1ff" offset="1"></stop></linearGradient><linearGradient id="SvgjsLinearGradient1013"><stop id="SvgjsStop1014" stop-color="#00ff8f" offset="0"></stop><stop id="SvgjsStop1015" stop-color="#00a1ff" offset="1"></stop></linearGradient><linearGradient id="SvgjsLinearGradient1013"><stop id="SvgjsStop1014" stop-color="#00ff8f" offset="0"></stop><stop id="SvgjsStop1015" stop-color="#00a1ff" offset="1"></stop></linearGradient></defs><g id="SvgjsG1007" featurekey="symbolFeature-0" transform="matrix(2.006969217651121,0,0,2.006969217651121,0,0)" fill="url(&quot;#SvgjsLinearGradient1013&quot;)"><g xmlns="http://www.w3.org/2000/svg" display="none" fill="url(&quot;#SvgjsLinearGradient1013&quot;)"><rect x="-69.333" y="-18.667" display="inline" fill="url(&quot;#SvgjsLinearGradient1013&quot;)" width="473.333" height="236"></rect></g><g xmlns="http://www.w3.org/2000/svg" display="none" fill="url(&quot;#SvgjsLinearGradient1013&quot;)"><g display="inline" fill="url(&quot;#SvgjsLinearGradient1013&quot;)"><g fill="url(&quot;#SvgjsLinearGradient1013&quot;)"><polygon fill="url(&quot;#SvgjsLinearGradient1013&quot;)" points="32,15.976 15.976,32 0,16.024    "></polygon></g><g fill="url(&quot;#SvgjsLinearGradient1013&quot;)"><polygon points="23.347,15.989 15.989,23.347 8.653,16.011    " fill="url(&quot;#SvgjsLinearGradient1013&quot;)"></polygon></g><g fill="url(&quot;#SvgjsLinearGradient1013&quot;)"><polygon fill="url(&quot;#SvgjsLinearGradient1013&quot;)" points="0,16.024 16.024,0 32,15.976    "></polygon></g><g fill="url(&quot;#SvgjsLinearGradient1013&quot;)"><polygon fill="url(&quot;#SvgjsLinearGradient1013&quot;)" points="8.653,16.011 16.011,8.653 23.347,15.989    "></polygon></g></g></g><g xmlns="http://www.w3.org/2000/svg" display="none" fill="url(&quot;#SvgjsLinearGradient1013&quot;)"><g display="inline" fill="url(&quot;#SvgjsLinearGradient1013&quot;)"><path fill="url(&quot;#SvgjsLinearGradient1013&quot;)" d="M16,1c8.271,0,15,6.729,15,15s-6.729,15-15,15S1,24.271,1,16S7.729,1,16,1 M16,0C7.163,0,0,7.163,0,16    s7.163,16,16,16s16-7.163,16-16S24.837,0,16,0L16,0z"></path></g><g display="inline" fill="url(&quot;#SvgjsLinearGradient1013&quot;)"><path fill="url(&quot;#SvgjsLinearGradient1013&quot;)" d="M13.034,6.153l2.259,2.259L16,9.119l0.707-0.707l2.259-2.259l0.744,0.744l-2.259,2.259l-0.707,0.707    l0.707,0.707l2.259,2.259l-0.744,0.744l-2.259-2.259L16,10.607l-0.707,0.707l-2.259,2.259l-0.744-0.744l2.259-2.259l0.707-0.707    l-0.707-0.707L12.29,6.897L13.034,6.153 M18.966,4.738L16,7.705l-2.966-2.966l-2.158,2.158l2.966,2.966l-2.966,2.966l2.158,2.158    L16,12.021l2.966,2.966l2.158-2.158l-2.966-2.966l2.966-2.966L18.966,4.738L18.966,4.738z"></path></g><g display="inline" fill="url(&quot;#SvgjsLinearGradient1013&quot;)"><path fill="url(&quot;#SvgjsLinearGradient1013&quot;)" d="M13.034,18.427l2.259,2.259L16,21.393l0.707-0.707l2.259-2.259l0.744,0.744l-2.259,2.259l-0.707,0.707    l0.707,0.707l2.259,2.259l-0.744,0.744l-2.259-2.259L16,22.881l-0.707,0.707l-2.259,2.259l-0.744-0.744l2.259-2.259l0.707-0.707    l-0.707-0.707l-2.259-2.259L13.034,18.427 M18.966,17.013L16,19.979l-2.966-2.966l-2.158,2.158l2.966,2.966l-2.966,2.966    l2.158,2.158L16,24.295l2.966,2.966l2.158-2.158l-2.966-2.966l2.966-2.966L18.966,17.013L18.966,17.013z"></path></g></g><g xmlns="http://www.w3.org/2000/svg" display="none" fill="url(&quot;#SvgjsLinearGradient1013&quot;)"><g display="inline" fill="url(&quot;#SvgjsLinearGradient1013&quot;)"><rect x="2" y="2" fill="url(&quot;#SvgjsLinearGradient1013&quot;)" width="28" height="28"></rect></g><g display="inline" fill="url(&quot;#SvgjsLinearGradient1013&quot;)"><g fill="url(&quot;#SvgjsLinearGradient1013&quot;)"><path fill="url(&quot;#SvgjsLinearGradient1013&quot;)" d="M16,31.5C7.453,31.5,0.5,24.547,0.5,16S7.453,0.5,16,0.5S31.5,7.453,31.5,16S24.547,31.5,16,31.5z"></path></g><g fill="url(&quot;#SvgjsLinearGradient1013&quot;)"><g fill="url(&quot;#SvgjsLinearGradient1013&quot;)"><path d="M16,1c8.271,0,15,6.729,15,15s-6.729,15-15,15S1,24.271,1,16S7.729,1,16,1 M16,0C7.163,0,0,7.163,0,16s7.163,16,16,16      s16-7.163,16-16S24.837,0,16,0L16,0z" fill="url(&quot;#SvgjsLinearGradient1013&quot;)"></path></g></g></g><g display="inline" fill="url(&quot;#SvgjsLinearGradient1013&quot;)"><g fill="url(&quot;#SvgjsLinearGradient1013&quot;)"><polygon fill="url(&quot;#SvgjsLinearGradient1013&quot;)" points="16,11.314 13.034,14.28 11.582,12.829 14.549,9.863 11.582,6.896 13.034,5.445 16,8.412      18.966,5.445 20.418,6.896 17.451,9.863 20.418,12.829 18.966,14.28    "></polygon></g><g fill="url(&quot;#SvgjsLinearGradient1013&quot;)"><path d="M13.034,6.153l2.259,2.259L16,9.119l0.707-0.707l2.259-2.259l0.744,0.744l-2.259,2.259l-0.707,0.707l0.707,0.707     l2.259,2.259l-0.744,0.744l-2.259-2.259L16,10.607l-0.707,0.707l-2.259,2.259l-0.744-0.744l2.259-2.259l0.707-0.707l-0.707-0.707     L12.29,6.897L13.034,6.153 M18.966,4.738L16,7.705l-2.966-2.966l-2.158,2.158l2.966,2.966l-2.966,2.966l2.158,2.158L16,12.021     l2.966,2.966l2.158-2.158l-2.966-2.966l2.966-2.966L18.966,4.738L18.966,4.738z" fill="url(&quot;#SvgjsLinearGradient1013&quot;)"></path></g></g><g display="inline" fill="url(&quot;#SvgjsLinearGradient1013&quot;)"><g fill="url(&quot;#SvgjsLinearGradient1013&quot;)"><polygon fill="url(&quot;#SvgjsLinearGradient1013&quot;)" points="16,23.589 13.034,26.555 11.582,25.104 14.549,22.137 11.582,19.171 13.034,17.72 16,20.686      18.966,17.72 20.418,19.171 17.451,22.137 20.418,25.104 18.966,26.555    "></polygon></g><g fill="url(&quot;#SvgjsLinearGradient1013&quot;)"><path d="M13.034,18.427l2.259,2.259L16,21.393l0.707-0.707l2.259-2.259l0.744,0.744l-2.259,2.259l-0.707,0.707l0.707,0.707     l2.259,2.259l-0.744,0.744l-2.259-2.259L16,22.881l-0.707,0.707l-2.259,2.259l-0.744-0.744l2.259-2.259l0.707-0.707l-0.707-0.707     l-2.259-2.259L13.034,18.427 M18.966,17.013L16,19.979l-2.966-2.966l-2.158,2.158l2.966,2.966l-2.966,2.966l2.158,2.158     L16,24.295l2.966,2.966l2.158-2.158l-2.966-2.966l2.966-2.966L18.966,17.013L18.966,17.013z" fill="url(&quot;#SvgjsLinearGradient1013&quot;)"></path></g></g></g><g xmlns="http://www.w3.org/2000/svg" fill="url(&quot;#SvgjsLinearGradient1013&quot;)"><g fill="url(&quot;#SvgjsLinearGradient1013&quot;)"><path d="M0,16.024L15.976,32L32,15.976L16.024,0L0,16.024z M15.989,23.347l-7.336-7.336l14.694-0.022L15.989,23.347z" fill="url(&quot;#SvgjsLinearGradient1013&quot;)"></path></g></g></g><g id="SvgjsG1008" featurekey="nameLeftFeature-0" transform="matrix(2.477739676421398,0,0,2.477739676421398,81.02671286088567,-0.3708905958354478)" fill="#313131"><path d="M6.1 6 c3.14 0 5.18 1.9 5.18 4.76 c0 2.82 -2.04 4.58 -5.18 4.58 l-1.98 0 l0 4.66 l-2.92 0 l0 -14 l4.9 0 z M5.92 12.82 c1.44 0 2.44 -0.56 2.44 -2.06 c0 -1.48 -1 -2.08 -2.44 -2.08 l-1.8 0 l0 4.14 l1.8 0 z M21.740000000000002 6 l2.92 0 l0 14 l-2.92 0 l0 -5.66 l-5.64 0 l0 5.66 l-2.92 0 l0 -14 l2.92 0 l0 5.66 l5.64 0 l0 -5.66 z M34.019999999999996 5.800000000000001 c3.9 0 7.26 2.94 7.26 7.2 s-3.36 7.2 -7.26 7.2 s-7.26 -2.94 -7.26 -7.2 s3.36 -7.2 7.26 -7.2 z M34.019999999999996 17.46 c2.36 0 4.22 -1.86 4.22 -4.46 s-1.86 -4.46 -4.22 -4.46 s-4.22 1.86 -4.22 4.46 s1.86 4.46 4.22 4.46 z M52.54 6 l2.92 0 l0 14 l-2.22 0 l-6.94 -8.68 l0 8.68 l-2.92 0 l0 -14 l2.26 0 l6.9 8.7 l0 -8.7 z M60.779999999999994 17.32 l5.92 0 l0 2.68 l-6.32 0 l-2.52 0 l0 -14 l2.92 0 l5.74 0 l0 2.68 l-5.74 0 l0 2.96 l4.34 0 l0 2.64 l-4.34 0 l0 3.04 z" fill="#313131"></path></g><g id="SvgjsG1009" featurekey="nameRightFeature-0" transform="matrix(2.5485323398744395,0,0,2.5485323398744395,249.9417592477748,-1.291194039246637)" fill="#313131"><path d="M11.46 6 l0.58 0 l0 14 l-0.44 0 l-9.82 -12.9 l0 12.9 l-0.58 0 l0 -14 l0.44 0 l9.82 12.94 l0 -12.94 z M15.02 6 l0 14 l-0.58 0 l0 -14 l0.58 0 z M26.06 6 l0 0.58 l-4.22 0 l0 13.42 l-0.58 0 l0 -13.42 l-4.24 0 l0 -0.58 l9.04 0 z M28.64 19.42 l7.28 0 l0 0.58 l-7.68 0 l-0.18 0 l0 -14 l0.58 0 l7.1 0 l0 0.58 l-7.1 0 l0 6.1 l5.66 0 l0 0.58 l-5.66 0 l0 6.16 z" fill="#313131"></path></g></svg>