<svg width="31" height="31" viewBox="0 0 31 31" fill="none" xmlns="http://www.w3.org/2000/svg">
<ellipse cx="15.5" cy="15.6684" rx="15.5" ry="15.3315" fill="white"/>
<path d="M15.5 31C19.6109 31 23.5533 29.367 26.4602 26.4602C29.367 23.5533 31 19.6109 31 15.5C31 11.3891 29.367 7.44666 26.4602 4.53985C23.5533 1.63303 19.6109 0 15.5 0C11.3891 0 7.44666 1.63303 4.53985 4.53985C1.63303 7.44666 0 11.3891 0 15.5C0 19.6109 1.63303 23.5533 4.53985 26.4602C7.44666 29.367 11.3891 31 15.5 31ZM10.2809 10.0084C10.7592 8.6582 12.0428 7.75 13.4777 7.75H17.0076C19.1207 7.75 20.8281 9.46348 20.8281 11.5705C20.8281 12.9389 20.0955 14.2043 18.9088 14.8885L16.9531 16.0086C16.941 16.7957 16.2932 17.4375 15.5 17.4375C14.6947 17.4375 14.0469 16.7896 14.0469 15.9844V15.167C14.0469 14.6463 14.3254 14.168 14.7795 13.9076L17.4617 12.3697C17.7463 12.2063 17.9219 11.9035 17.9219 11.5766C17.9219 11.068 17.5102 10.6623 17.0076 10.6623H13.4777C13.2719 10.6623 13.0902 10.7895 13.0236 10.9832L12.9994 11.0559C12.733 11.8127 11.8975 12.2062 11.1467 11.9398C10.3959 11.6734 9.99629 10.8379 10.2627 10.0871L10.2869 10.0145L10.2809 10.0084ZM13.5625 21.3125C13.5625 20.7986 13.7666 20.3058 14.13 19.9425C14.4933 19.5791 14.9861 19.375 15.5 19.375C16.0139 19.375 16.5067 19.5791 16.87 19.9425C17.2334 20.3058 17.4375 20.7986 17.4375 21.3125C17.4375 21.8264 17.2334 22.3192 16.87 22.6825C16.5067 23.0459 16.0139 23.25 15.5 23.25C14.9861 23.25 14.4933 23.0459 14.13 22.6825C13.7666 22.3192 13.5625 21.8264 13.5625 21.3125Z" fill="#2596BE"/>
</svg>
